<?xml version="1.0" standalone="no"?>
<!DOCTYPE svg PUBLIC "-//W3C//DTD SVG 1.1//EN" "http://www.w3.org/Graphics/SVG/1.1/DTD/svg11.dtd" >
<svg xmlns="http://www.w3.org/2000/svg">
  <metadata>Created by iconfont</metadata>
  <defs>
  <font id="iconfont" horiz-adv-x="1024">
    <font-face
      font-family="iconfont"
      font-weight="400"
      font-stretch="normal"
      units-per-em="1024"
      ascent="896"
      descent="-128"
    />
      <missing-glyph />
      
      <glyph glyph-name="ruku" unicode="&#58895;" d="M258.701056 702.954774l512.00016 0 0-63.99952L258.701056 638.955254 258.701056 702.954774zM256.993602 574.328935l511.99916 0 0-63.99952L256.993602 510.329415 256.993602 574.328935zM256.993602 446.336892l131.31098 0 0-64.00052L256.993602 382.336372 256.993602 446.336892zM256.993602 318.334853l57.948456 0 0-64.00052-57.948456 0L256.993602 318.334853zM898.701256 896 130.701016 896C95.356326 896 66.702495 867.346169 66.702495 831.99948l0-895.998281c0-35.34469 28.653831-63.99952 63.99952-63.99952l299.403191 0.327895 0 63.99952-299.403191-0.327895L130.702015 831.99948l768.00024 0 0-611.622281 63.99952 0L962.701775 831.99948C962.700776 867.346169 934.041947 896 898.701256 896L898.701256 896zM962.700776-102.077615c-4.265635 63.979527-29.857446 375.345889-362.549984 392.40643l0 98.101607c0 4.265635 0 17.06154-8.53027 29.857446s-25.591811 12.795905-46.917986 4.265635l-4.265635 0-187.672945-204.734485c-4.265635-4.265635-21.326176-25.591811-21.326176-46.917986 0-25.591811 21.326176-46.917986 25.591811-46.917986l187.672945-213.264755c4.265635-4.265635 17.06154-17.06154 29.857446-17.06154 12.795905 0 21.326176 8.53027 25.591811 17.06154 4.265635 8.53027 4.265635 17.06154 4.265635 29.857446L604.417426 64.268154c55.449256 0 208.99912-8.53027 302.836092-174.877039 6.536908-14.430382 17.06154-17.06154 25.591811-17.06154l8.53027 0 6.380958 1.880398C960.551464-121.524392 962.700776-106.34325 962.700776-102.077615L962.700776-102.077615zM617.212332 106.921505c-21.326176 0-34.122081 0-34.122081 0l-21.326176-4.265635 0-145.019594L391.151671 153.839491c-4.265635 4.265635-12.795905 12.795905-12.795905 17.06154 0 4.265635 4.265635 12.795905 8.53027 17.06154l166.346769 179.142674 0-123.693418 21.326176 0c238.856566 0 311.366363-162.081134 332.692538-272.978647C809.149912 94.1256 676.926224 106.921505 617.212332 106.921505L617.212332 106.921505z"  horiz-adv-x="1024" />
      
      <glyph glyph-name="chukudan" unicode="&#58992;" d="M896 244.363636a34.909091 34.909091 0 0 1 34.909091 34.909091V756.363636a46.545455 46.545455 0 0 1-46.545455 46.545455h-139.636363V849.454545a46.545455 46.545455 0 0 1-46.545455 46.545455H325.818182a46.545455 46.545455 0 0 1-46.545455-46.545455v-46.545454H139.636364a46.545455 46.545455 0 0 1-46.545455-46.545455v-837.818181a46.545455 46.545455 0 0 1 46.545455-46.545455h744.727272a46.545455 46.545455 0 0 1 46.545455 46.545455v151.272727a34.909091 34.909091 0 0 1-69.818182 0V-58.181818H162.909091V733.090909h116.363636v-46.545454a46.545455 46.545455 0 0 1 46.545455-46.545455h372.363636a46.545455 46.545455 0 0 1 46.545455 46.545455V733.090909h116.363636v-453.818182a34.909091 34.909091 0 0 1 34.909091-34.909091zM674.909091 709.818182H349.090909V826.181818h325.818182zM302.545455 93.090909a34.909091 34.909091 0 0 1 34.90909-34.909091h349.09091a34.909091 34.909091 0 0 1 0 69.818182h-349.09091A34.909091 34.909091 0 0 1 302.545455 93.090909z m209.454545 96.349091a34.909091 34.909091 0 0 1 34.909091 34.909091v221.789091l72.145454-72.145455a34.909091 34.909091 0 0 1 49.338182 49.338182l-139.636363 139.636364a23.272727 23.272727 0 0 1-32.814546 0l-139.636363-139.636364a34.909091 34.909091 0 0 1 49.338181-49.338182l72.145455 72.145455v-222.021818A34.909091 34.909091 0 0 1 512 189.44z"  horiz-adv-x="1024" />
      
      <glyph glyph-name="rukudan" unicode="&#58995;" d="M896 244.363636a34.909091 34.909091 0 0 1 34.909091 34.909091V756.363636a46.545455 46.545455 0 0 1-46.545455 46.545455h-139.636363V849.454545a46.545455 46.545455 0 0 1-46.545455 46.545455H325.818182a46.545455 46.545455 0 0 1-46.545455-46.545455v-46.545454H139.636364a46.545455 46.545455 0 0 1-46.545455-46.545455v-837.818181a46.545455 46.545455 0 0 1 46.545455-46.545455h744.727272a46.545455 46.545455 0 0 1 46.545455 46.545455v151.272727a34.909091 34.909091 0 0 1-69.818182 0V-58.181818H162.909091V733.090909h116.363636v-46.545454a46.545455 46.545455 0 0 1 46.545455-46.545455h372.363636a46.545455 46.545455 0 0 1 46.545455 46.545455V733.090909h116.363636v-453.818182a34.909091 34.909091 0 0 1 34.909091-34.909091zM674.909091 709.818182H349.090909V826.181818h325.818182zM302.545455 93.090909a34.909091 34.909091 0 0 1 34.90909-34.909091h349.09091a34.909091 34.909091 0 0 1 0 69.818182h-349.09091A34.909091 34.909091 0 0 1 302.545455 93.090909zM512 570.181818a34.909091 34.909091 0 0 1-34.909091-34.909091V314.181818l-72.145454 72.145455a34.909091 34.909091 0 0 1-49.338182-49.338182l139.636363-139.636364a23.272727 23.272727 0 0 1 32.814546 0l139.636363 139.636364a34.909091 34.909091 0 1 1-49.338181 49.338182L546.909091 314.181818v221.090909A34.909091 34.909091 0 0 1 512 570.181818z"  horiz-adv-x="1024" />
      
      <glyph glyph-name="ruku1" unicode="&#58886;" d="M621.67 209.51a55.21 55.21 0 0 1-17-40.91c0.13-19.7 12.42-32.26 20.14-39.9l92.51-102.64q0.53-0.59 1.09-1.14l0.07-0.07c4.51-4.39 13.89-13.53 30.39-13.53 23.42 0 41.09 17.65 41.09 41v39c38.78-4.11 68.62-25.32 94.67-66.6 7.82-14.71 19.41-22.16 34.47-22.16 19.41 0 41 16.86 41 41a24.21 24.21 0 0 1-0.16 2.75c-0.21 1.87-0.42 4.74-0.66 8.06-1.61 22.17-5 68.29-30.26 110.27a164.36 164.36 0 0 1-58.74 57.83c-22.75 13.25-49.74 22-80.45 26.15v31.73c0 11.16-4.9 22.46-13.43 31s-19.83 13.43-31 13.43c-17.09 0-26.72-9.88-30.82-14.1l-0.48-0.51z m31.59-39.92a6.66 6.66 0 0 0 2.15 5q0.74 0.68 1.42 1.43l84.53 92v-41.31a24.28 24.28 0 0 1 22.86-24.24c106.36-6.23 135.4-67.14 144.14-127.22-14.88 18.58-31.06 32.95-49 43.56C832 135 800 142.29 764.44 140.39a24.28 24.28 0 0 1-23-24.24v-44.28l-81 89.86q-0.47 0.53-1 1c-1.69 1.73-5.17 5.16-6.18 6.85zM538.13 40.38h-52.7c-20.49 0-24.89-4.39-24.89-24.88v-54.16c0-20.5 4.39-24.89 24.89-24.89h52.7c20.5 0 24.89 4.39 24.89 24.89v54.15c-1.46 20.51-5.85 24.89-24.89 24.89zM362.48 40.38h-52.7c-20.49 0-24.89-4.39-24.89-24.88v-54.16c0-20.5 4.39-24.89 24.89-24.89h52.7c20.49 0 24.88 4.39 24.88 24.89v54.15c-1.47 20.51-5.86 24.89-24.88 24.89zM362.48 228.1h-52.7c-20.49 0-24.89-4.39-24.89-24.88v-52.7c0-20.49 4.39-24.88 24.89-24.88h52.7c20.49 0 24.88 4.39 24.88 24.88v54.15c-1.47 19.04-5.86 23.43-24.88 23.43zM485.43 405.22c-20.49 0-24.88-4.39-24.88-24.88v-54.16c0-20.5 4.39-24.89 24.88-24.89h52.7c20.49 0 24.88 4.39 24.88 24.89v54.16c-1.46 20.49-5.85 24.88-24.88 24.88zM538.13 228.1h-52.7c-20.49 0-24.89-4.39-24.89-24.88v-52.7c0-20.49 4.39-24.88 24.89-24.88h52.7c20.5 0 24.89 4.39 24.89 24.88v54.15c-1.46 19.04-5.85 23.43-24.89 23.43zM362.48 405.22h-52.7c-20.49 0-24.89-4.39-24.89-24.88v-54.16c0-20.49 4.39-24.88 24.89-24.88h52.7c20.49 0 24.88 4.39 24.88 24.88v54.16c-1.47 21.95-5.86 24.88-24.88 24.88zM914.29 468.07A28.7 28.7 0 1 1 948.68 514l-419 313.65a28.7 28.7 0 0 1-34.37 0L75.53 514a28.7 28.7 0 1 1 34.35-46l40.54 30.3v-533.17a28.69 28.69 0 0 1 57.38 0v576.1l304.65 227.63z"  horiz-adv-x="1024" />
      
      <glyph glyph-name="navicon-ckd" unicode="&#58970;" d="M596.48 168.44799999999998H297.984c-14.336 0-25.6 11.264-25.6 25.6s11.264 25.6 25.6 25.6h298.496c14.336 0 25.6-11.264 25.6-25.6s-11.264-25.6-25.6-25.6zM630.784 643.072H208.896c-14.336 0-25.6 11.264-25.6 25.6s11.264 25.6 25.6 25.6h421.888c14.336 0 25.6-11.264 25.6-25.6s-11.264-25.6-25.6-25.6zM630.784 448.512H208.896c-14.336 0-25.6 11.264-25.6 25.6s11.264 25.6 25.6 25.6h421.888c14.336 0 25.6-11.264 25.6-25.6s-11.264-25.6-25.6-25.6zM936.96-102.39999999999998c-14.336 0-25.6 11.264-25.6 25.6V850.944c0 14.336 11.264 25.6 25.6 25.6s25.6-11.264 25.6-25.6V-76.79999999999995c0-14.336-11.264-25.6-25.6-25.6zM373.248 54.78399999999999c-6.656 0-13.312 2.56-17.92 7.68l-113.152 113.664c-9.728 9.728-9.728 26.112 0 35.84l113.152 114.176c9.728 10.24 26.112 10.24 36.352 0 10.24-9.728 10.24-26.112 0-36.352l-95.232-96.256 95.232-95.744c9.728-10.24 9.728-26.112 0-36.352-5.12-4.096-11.776-6.656-18.432-6.656zM783.872-102.91200000000003H56.32c-14.336 0-25.6 11.264-25.6 25.6V850.944c0 14.336 11.264 25.6 25.6 25.6h727.552c14.336 0 25.6-11.264 25.6-25.6v-928.256c0-14.336-11.264-25.6-25.6-25.6zM81.92-51.71199999999999h676.352V825.344H81.92v-877.056z"  horiz-adv-x="1030" />
      
      <glyph glyph-name="navicon-ckyw" unicode="&#58971;" d="M844.8-73.21600000000001H60.416c-14.336 0-25.6 11.264-25.6 25.6V641.5360000000001c0 14.336 11.264 25.6 25.6 25.6H844.8c14.336 0 25.6-11.264 25.6-25.6v-689.152c0-14.336-11.264-25.6-25.6-25.6z m-758.784 51.2H819.2V615.9359999999999H86.016v-637.952zM844.8 615.9359999999999H60.416c-9.728 0-18.432 5.12-22.528 13.824s-3.584 18.432 1.536 26.624L158.72 828.4159999999999c4.608 7.168 12.8 11.264 20.992 11.264H716.8c8.192 0 15.872-3.584 20.48-10.24l128-172.544c5.632-7.68 6.656-17.92 2.56-26.624-4.608-8.704-13.312-14.336-23.04-14.336z m-735.744 51.2H793.6L704 788.48H193.024L109.056 667.136zM639.488 276.48h-322.56c-14.336 0-25.6 11.264-25.6 25.6s11.264 25.6 25.6 25.6h322.56c14.336 0 25.6-11.264 25.6-25.6s-11.264-25.6-25.6-25.6zM979.968-69.63199999999995c-14.336 0-25.6 11.264-25.6 25.6V814.08c0 14.336 11.264 25.6 25.6 25.6s25.6-11.264 25.6-25.6v-858.112c0-14.336-11.264-25.6-25.6-25.6zM397.824 154.11199999999997c-6.656 0-13.312 2.56-17.92 7.68l-121.856 122.368c-9.728 9.728-9.728 26.112 0 35.84l121.856 123.392c9.728 10.24 26.112 10.24 36.352 0 10.24-9.728 10.24-26.112 0-36.352L311.808 302.08000000000004l103.936-104.448c9.728-10.24 9.728-26.112 0-36.352-4.608-4.608-11.264-7.168-17.92-7.168z"  horiz-adv-x="1030" />
      
      <glyph glyph-name="cangku" unicode="&#58932;" d="M826.496102 437.6576c0 21.61664 17.18272 38.8096 38.79936 38.8096s39.36256-17.18272 39.36256-38.8096v-382.48448c0-21.61664-17.73568-39.08608-39.36256-39.08608H158.520422c-21.61664 0-38.8096 17.46944-38.8096 39.08608V437.6576c0 21.61664 17.18272 38.8096 38.8096 38.8096s39.07584-17.18272 39.07584-38.8096v-343.40864h61.80864V454.84032c0 13.02528 10.25024 23.83872 23.27552 23.83872H740.838502c13.02528 0 24.1152-10.81344 24.1152-23.83872V94.23872h61.53216V437.6576h0.01024zM306.519142 180.71552h411.32032v59.32032H306.519142v-59.32032z m411.32032-46.55104H306.519142v-39.90528h411.32032v39.90528z m-411.32032 152.9856h411.32032v59.32032H306.519142v-59.32032z m0 105.8816h411.32032V431.0016H306.519142v-37.96992zM58.741862 449.85344c-18.29888-10.52672-42.68032-3.88096-53.21728 13.86496-11.08992 18.8416-4.98688 42.9568 13.85472 53.21728L492.231782 797.97248c12.7488 7.4752 28.27264 7.20896 39.91552 0l472.84224-281.04704c18.29888-10.25024 24.39168-34.36544 13.86496-53.21728-11.08992-17.73568-34.9184-24.39168-53.77024-13.86496L512.179302 718.98112 58.741862 449.85344zM531.584102 797.97248h0.5632-0.5632z"  horiz-adv-x="1025" />
      
      <glyph glyph-name="cangku_cangchuguanli" unicode="&#60104;" d="M477.866667 443.733333V469.333333h64v-25.6c17.066667-4.266667 29.866667-12.8 38.4-21.333333l21.333333 12.8 34.133333-55.466667-21.333333-12.8c0-8.533333 4.266667-17.066667 4.266667-21.333333s0-17.066667-4.266667-21.333333l21.333333-12.8-34.133333-55.466667-21.333333 12.8c-12.8-8.533333-25.6-17.066667-38.4-21.333333v-34.133334h-64v25.6c-17.066667 4.266667-29.866667 12.8-38.4 21.333334l-21.333334-12.8-34.133333 55.466666 21.333333 12.8c0 8.533333-4.266667 17.066667-4.266666 21.333334s0 17.066667 4.266666 21.333333l-21.333333 21.333333 34.133333 55.466667 21.333334-12.8c12.8 8.533333 25.6 17.066667 38.4 21.333333zM170.666667 85.333333H85.333333v320H42.666667L345.6 682.666667l59.733333-55.466667-166.4-153.6L170.666667 418.133333V170.666667h42.666666v-85.333334H170.666667z m686.933333 0H810.666667v85.333334h46.933333v247.466666l-64 55.466667-166.4 153.6L682.666667 682.666667l302.933333-277.333334h-42.666667V85.333333h-85.333333z m-85.333333 320V85.333333h-512v320H213.333333L512 682.666667l302.933333-277.333334h-42.666666z m-426.666667 12.8V170.666667h341.333333v247.466666L512 571.733333l-166.4-153.6zM512 298.666667c25.6 0 42.666667 17.066667 42.666667 42.666666s-17.066667 42.666667-42.666667 42.666667-42.666667-17.066667-42.666667-42.666667 17.066667-42.666667 42.666667-42.666666z"  horiz-adv-x="1024" />
      
      <glyph glyph-name="cangku_zhongzhuanchuzhan" unicode="&#60105;" d="M729.6 128L682.666667 174.933333l59.733333 59.733334 149.333333-149.333334-149.333333-149.333333-59.733333 59.733333 46.933333 46.933334H512v85.333333h217.6z m123.733333 128h-85.333333v93.866667l-256 256-256-256V128h213.333333v-85.333333H170.666667v298.666666H128l384 384 384-384h-42.666667v-85.333333z m-422.4 170.666667h170.666667v-85.333334h-170.666667v85.333334z"  horiz-adv-x="1024" />
      
      <glyph glyph-name="cangku_daozhan" unicode="&#60106;" d="M674.133333 128H853.333333v-85.333333h-179.2l46.933334-46.933334-59.733334-59.733333L512 85.333333l149.333333 149.333334 59.733334-59.733334-46.933334-46.933333z m179.2 85.333333h-85.333333v136.533334l-256 256-256-256V128h213.333333v-85.333333H170.666667v298.666666H128l384 384 384-384h-42.666667v-128z m-422.4 213.333334h170.666667v-85.333334h-170.666667v85.333334z"  horiz-adv-x="1024" />
      
      <glyph glyph-name="xinruku" unicode="&#58902;" d="M1128.940544 76.8v10.24c-3.413333 27.306667-6.826667 81.92-37.546667 133.12-17.066667 27.306667-40.96 51.2-71.68 68.266667-27.306667 17.066667-58.026667 27.306667-95.573333 30.72v37.546666c0 13.653333-6.826667 27.306667-17.066667 37.546667-10.24 10.24-23.893333 17.066667-37.546666 17.066667-20.48 0-30.72-10.24-37.546667-17.066667l-109.226667-119.466667c-13.653333-13.653333-20.48-30.72-20.48-47.786666 0-23.893333 13.653333-37.546667 23.893334-47.786667l109.226666-122.88c6.826667-6.826667 17.066667-17.066667 37.546667-17.066667 27.306667 0 47.786667 20.48 47.786667 47.786667v47.786667c47.786667-3.413333 81.92-30.72 112.64-78.506667 10.24-17.066667 23.893333-27.306667 40.96-27.306667 27.306667-3.413333 54.613333 17.066667 54.613333 47.786667 0-3.413333 0 0 0 0z m-119.466667 85.333333c-34.133333 20.48-71.68 27.306667-112.64 27.306667-17.066667 0-27.306667-13.653333-27.306666-27.306667v-51.2l-95.573334 105.813334-6.826666 6.826666c0 3.413333 0 3.413333 3.413333 6.826667l102.4 109.226667v-47.786667c0-13.653333 13.653333-27.306667 27.306667-27.306667 126.293333-6.826667 160.426667-78.506667 170.666666-153.6-20.48 23.893333-40.96 40.96-61.44 51.2zM1009.473877 465.92c13.653333-10.24 37.546667-3.413333 51.2 13.653333 13.653333 17.066667 10.24 40.96-6.826666 51.2l-491.52 348.16c-3.413333 3.413333-6.826667 6.826667-13.653334 10.24-13.653333 6.826667-34.133333 3.413333-47.786666-13.653333l-488.106667-344.746667c-13.653333-10.24-17.066667-34.133333-6.826667-51.2 13.653333-17.066667 34.133333-23.893333 51.2-13.653333l34.133334 23.893333v-570.026666c0-20.48 17.066667-37.546667 37.546666-37.546667 20.48 0 37.546667 17.066667 37.546667 37.546667v624.64l365.226667 256 477.866666-334.506667zM364.353877 496.64h-85.333333c-30.72 0-37.546667-6.826667-37.546667-37.546667v-85.333333c0-30.72 6.826667-37.546667 37.546667-37.546667h85.333333c30.72 0 37.546667 6.826667 37.546667 37.546667v85.333333c3.413333 30.72-3.413333 37.546667-37.546667 37.546667zM364.353877 288.426667h-85.333333c-30.72 0-37.546667-6.826667-37.546667-37.546667v-85.333333c0-30.72 6.826667-37.546667 37.546667-37.546667h85.333333c30.72 0 37.546667 6.826667 37.546667 37.546667v85.333333c3.413333 30.72-3.413333 37.546667-37.546667 37.546667zM364.353877 80.213333h-85.333333c-30.72 0-37.546667-6.826667-37.546667-37.546666v-85.333334c0-30.72 6.826667-37.546667 37.546667-37.546666h85.333333c30.72 0 37.546667 6.826667 37.546667 37.546666V42.666667c3.413333 30.72-3.413333 37.546667-37.546667 37.546666zM586.220544 80.213333h-85.333333c-30.72 0-37.546667-6.826667-37.546667-37.546666v-85.333334c0-30.72 6.826667-37.546667 37.546667-37.546666h85.333333c30.72 0 37.546667 6.826667 37.546667 37.546666V42.666667c0 30.72-6.826667 37.546667-37.546667 37.546666zM586.220544 288.426667h-85.333333c-30.72 0-37.546667-6.826667-37.546667-37.546667v-85.333333c0-30.72 6.826667-37.546667 37.546667-37.546667h85.333333c30.72 0 37.546667 6.826667 37.546667 37.546667v85.333333c0 30.72-6.826667 37.546667-37.546667 37.546667z"  horiz-adv-x="1128" />
      
      <glyph glyph-name="rukuliucheng" unicode="&#58914;" d="M959.5 119.6c-2.1 55.9-27.1 329.9-317.8 342v88.1c0.4 5 0.2 16.3-7.6 25.2-9 10.2-23.4 12.6-40.1 5.4l-3.9-1.7-163.2-177.5c-3.3-3.9-17.2-21.2-17.2-41.5 0-21.2 17.2-39.3 20.7-42.7l163.5-188.1c4.2-4.5 14.2-13.7 27.2-13.7 10.1 0 19.1 5.7 24 15.1 3.4 6.5 5 14.7 5 25.7V262.8c47.1 1.2 184.7-8.5 264.9-154.7 5.2-9.5 13.4-15 22.4-15h8.5l6.9 6.6c7.2 7.3 6.8 16.8 6.7 19.9zM656.9 303.1c-18 0-29.2-1.6-29.7-1.6l-17.3-2.5v-127.4L459.7 344.4c-5.3 5.4-9.7 12.6-9.8 15.3 0 4.1 4.1 11.4 7.2 15l144.5 157.1-0.1-109.8h20.1c207.1 0 270.6-140.9 289.9-236.9-87 105.2-203.6 118-254.6 118zM523.4 569.2c0 17.5-14.2 31.8-31.8 31.8H267.9c-17.6 0-31.8-14.2-31.8-31.8s14.2-31.8 31.8-31.8h223.8c17.5 0.1 31.7 14.3 31.7 31.8zM352.2 320.6h-84.3c-17.6 0-31.8-14.2-31.8-31.8s14.2-31.8 31.8-31.8h84.3c17.5 0 31.8 14.2 31.8 31.8-0.1 17.5-14.3 31.7-31.8 31.8zM409.7 429c0 17.5-14.2 31.8-31.8 31.8h-110c-17.6 0-31.8-14.2-31.8-31.8s14.2-31.8 31.8-31.8H378c17.5 0 31.7 14.3 31.7 31.8z m0 0M805.6 148.3c-0.4 0.1-0.9 0.2-1.3 0.3l-4.7-53.6c0-31-29.8-56.2-60.9-56.2H181.3c-31 0-56.2 25.2-56.2 56.2V675.7c0 1 0 1.9 0.1 2.9 1.5 29.7 26.1 53.4 56.2 53.4H762c30.1 0 54.6-23.7 56.2-53.4 0-1 0.1-1.9 0.1-2.9v-18.2l4.7-159.3c26.4-17.6 28.2-35.3 56.4-62.1V680.5c0 13.2-2.3 26.3-6.8 38.7C856.8 762.3 815.5 793 767 793H176.5c-52.4 0-96.4-35.8-108.9-84.3-2.4-9.2-3.6-18.6-3.5-28.1v-590.3c0-62.1 50.3-112.5 112.4-112.5h168.7v-1.1h84.3v1.1h84.3v-1.1h84.3v1.1h168.7c57.1 0 104.2 42.5 111.5 97.7 0 0-0.7 2.3-2.2 6.1-22.8 37.7-45.3 45.6-70.5 66.7z m0 0"  horiz-adv-x="1024" />
      
      <glyph glyph-name="yichuku" unicode="&#58918;" d="M192 514.048V-64H64V576l448 256 448-256v-128L512 704zM704 384l256-224-256-224v128h-256v192h256v128z"  horiz-adv-x="1024" />
      
      <glyph glyph-name="chuku" unicode="&#59005;" d="M608-64c-4.88 0-9.78 1.11-14.31 3.38A32 32 0 0 0 576-32v96H416c-17.67 0-32 14.33-32 32V224c0 17.67 14.33 32 32 32h160v96a32 32 0 0 0 51.2 25.6l256-192c8.06-6.04 12.8-15.53 12.8-25.6s-4.74-19.56-12.8-25.6l-256-192c-5.65-4.23-12.4-6.4-19.2-6.4zM448 128h160c17.67 0 32-14.33 32-32v-64l170.67 128L640 288v-64c0-17.67-14.33-32-32-32H448v-64zM927.98 448c-6.81 0-13.67 2.16-19.49 6.64L512 759.63 115.51 454.64c-14.01-10.78-34.1-8.16-44.88 5.85-10.78 14.01-8.15 34.1 5.85 44.87l416 320c11.5 8.85 27.52 8.85 39.02 0l416-320c14.01-10.78 16.63-30.87 5.85-44.87-6.29-8.19-15.78-12.49-25.37-12.49zM344 176h-60c-5.52 0-10 4.48-10 10v60c0 5.52 4.48 10 10 10h60c5.52 0 10-4.48 10-10v-60c0-5.52-4.48-10-10-10zM344 304h-60c-5.52 0-10 4.48-10 10v60c0 5.52 4.48 10 10 10h60c5.52 0 10-4.48 10-10v-60c0-5.52-4.48-10-10-10zM344 432h-60c-5.52 0-10 4.48-10 10v60c0 5.52 4.48 10 10 10h60c5.52 0 10-4.48 10-10v-60c0-5.52-4.48-10-10-10zM474.5 304h-60c-5.52 0-10 4.48-10 10v60c0 5.52 4.48 10 10 10h60c5.52 0 10-4.48 10-10v-60c0-5.52-4.48-10-10-10zM474.5 432h-60c-5.52 0-10 4.48-10 10v60c0 5.52 4.48 10 10 10h60c5.52 0 10-4.48 10-10v-60c0-5.52-4.48-10-10-10zM605 432h-60c-5.52 0-10 4.48-10 10v60c0 5.52 4.48 10 10 10h60c5.52 0 10-4.48 10-10v-60c0-5.52-4.48-10-10-10zM491-64H192c-17.67 0-32 14.33-32 32V553c0 17.67 14.33 32 32 32s32-14.33 32-32v-553h267c17.67 0 32-14.33 32-32s-14.33-32-32-32zM832 322c-17.67 0-32 14.33-32 32V553c0 17.67 14.33 32 32 32s32-14.33 32-32v-199c0-17.67-14.33-32-32-32z"  horiz-adv-x="1024" />
      
      <glyph glyph-name="caigouruku" unicode="&#58948;" d="M98.7 621.5v-420c0-16.5 12.9-30 28.6-30h28.6c0-66 51.4-120 114.3-120s114.3 54 114.3 120H613c0-66 51.4-120 114.3-120s114.3 54 114.3 120h28.6c15.7 0 28.6 13.5 28.6 30v84.7c0 3-0.7 6-2.1 8.2l-108 170.4c-2.9 4.5-7.1 6.7-12.1 6.7H670.1v150c0 16.5-12.9 30-28.6 30H127.3c-15.7 0-28.6-13.5-28.6-30z m572.9-438c4.3 23.2 22.1 42.8 45 47.3 40 8.2 75-28.5 67.1-70.5-5-24-22.9-42.8-45-47.3-40-8.2-75 28.5-67.1 70.5z m-1.5 228h85c5 0 9.3-2.2 11.4-6.7l75-113.2H670.1V411.5z m-455.7-228c4.3 23.2 22.1 42.8 45 47.3 40 8.2 75-28.5 67.1-70.5-5-24-22.9-42.8-45-47.3-39.9-8.2-74.9 28.5-67.1 70.5zM114.3 478.3h219.2V377H114.3zM324 310.2L533.2 437 324 563.8z"  horiz-adv-x="1024" />
      
      <glyph glyph-name="anliguanli" unicode="&#59232;" d="M652.8 832v-499.2896a51.2 51.2 0 0 1 15.1424-36.352l2.1376-2.0096L742.4 230.4l72.32 63.9488a51.2 51.2 0 0 1 17.1904 35.4304l0.0896 2.9312V832h51.2a76.8 76.8 0 0 0 76.8-76.8v-742.4a76.8 76.8 0 0 0-76.8-76.8H140.8a76.8 76.8 0 0 0-76.8 76.8V755.2a76.8 76.8 0 0 0 76.8 76.8h512zM358.4 179.2a64 64 0 1 1 0-128 64 64 0 0 1 0 128z m192 0a64 64 0 1 1 0-128 64 64 0 0 1 0 128z m192 0a64 64 0 1 1 0-128 64 64 0 0 1 0 128zM524.8 652.8H243.2l-2.2528-0.064a38.4 38.4 0 0 1 0-76.672L243.2 576h281.6l2.2528 0.064a38.4 38.4 0 0 1 0 76.672L524.8 652.8zM524.8 499.2a38.4 38.4 0 0 0 2.2528-76.736L524.8 422.4H243.2a38.4 38.4 0 0 0-2.2528 76.736L243.2 499.2h281.6zM742.4 832a38.4 38.4 0 0 0 38.4-38.4v-435.2l-38.4-64-38.4 64V793.6a38.4 38.4 0 0 0 38.4 38.4z"  horiz-adv-x="1024" />
      
      <glyph glyph-name="chakanwenjian" unicode="&#59233;" d="M883.2 870.4a51.2 51.2 0 0 0 51.2-51.2v-492.224A280.5248 280.5248 0 0 1 748.8 396.8c-155.52 0-281.6-126.08-281.6-281.6 0-87.6544 40.0512-165.9648 102.848-217.6H140.8a51.2 51.2 0 0 0-51.2 51.2V819.2a51.2 51.2 0 0 0 51.2 51.2h742.4zM448 524.8H281.6a38.4 38.4 0 0 1-2.2528-76.736L281.6 448h166.4a38.4 38.4 0 0 1 2.2528 76.736L448 524.8z m230.4 179.2H281.6a38.4 38.4 0 0 1-2.2528-76.736L281.6 627.2h396.8a38.4 38.4 0 0 1 2.2528 76.736L678.4 704zM741.8496 307.7504c106.048 0 192-85.9648 192-192 0-42.4448-13.76-81.664-37.0688-113.4464l60.3776-60.3648a38.4 38.4 0 0 0-52.4544-56.0256l-1.8432 1.728-62.976 62.976a191.104 191.104 0 0 0-98.0352-26.88c-106.0352 0-192 85.9648-192 192 0 106.048 85.9648 192 192 192z m0-76.8a115.2 115.2 0 1 1 0-230.4 115.2 115.2 0 0 1 0 230.4z"  horiz-adv-x="1024" />
      
      <glyph glyph-name="bangzhuzhongxin" unicode="&#59234;" d="M512 896c282.7648 0 512-229.2352 512-512S794.7648-128 512-128 0 101.2352 0 384 229.2352 896 512 896z m-16.6016-658.3808a48.6656 48.6656 0 0 1-33.4848-14.2976c-9.7536-9.4208-14.6944-21.696-14.6944-36.48a52.16 52.16 0 0 1 14.8992-36.7232 49.5744 49.5744 0 0 1 36.1472-14.8864 51.1744 51.1744 0 0 1 35.9808 14.208 51.8144 51.8144 0 0 1 15.3728 37.2992c0 14.8608-4.9536 27.1872-14.848 36.6336-8.7296 8.896-20.0576 13.5296-33.5872 14.144l-3.1616 0.0768-2.624 0.0256zM512.512 620.7488c43.648 0.0512 78.656-11.4176 105.4208-35.072 27.4304-23.296 41.2672-55.488 41.2672-95.4112 0-32.2048-8.7936-59.5968-26.1376-81.2672l-1.536-1.7536c-7.1936-7.936-24.5248-23.488-53.9648-48.5632a100.9536 100.9536 0 0 1-25.6512-30.9504 77.4016 77.4016 0 0 1-9.664-34.7136l-0.0384-4.0576v-17.1776h-82.304v17.1776c0 25.2928 4.3776 46.2592 13.504 62.8608 8.1664 17.1648 29.952 40.96 66.2016 72.8832l8.2944 7.232 10.752 11.6096c11.2384 14.1568 16.7168 27.8272 16.7168 42.2784 0 20.2624-5.7472 35.8016-17.0112 47.2832-11.4944 11.2896-28.6208 17.152-50.7008 17.152-26.2528 0-44.992-7.424-56.7936-22.4l-1.7152-2.304c-10.0992-13.0944-15.552-31.7952-16.1664-56.0896l-0.0512-4.6208v-6.4H352v6.4c0 47.7824 14.1568 85.504 42.688 113.4848 27.648 27.4176 65.1392 41.408 112.4352 42.368l5.3888 0.0512z"  horiz-adv-x="1024" />
      
      <glyph glyph-name="gongzuorizhi" unicode="&#59235;" d="M729.6 716.8a76.8 76.8 0 0 0 76.8-76.8v-665.6a76.8 76.8 0 0 0-76.8-76.8H140.8a76.8 76.8 0 0 0-76.8 76.8V640a76.8 76.8 0 0 0 76.8 76.8h588.8zM883.2 870.4a76.8 76.8 0 0 0 76.8-76.8v-691.2a51.2 51.2 0 0 0-51.2-51.2h-38.4V755.2a25.6 25.6 0 0 1-25.6 25.6H179.2V819.2a51.2 51.2 0 0 0 51.2 51.2h652.8zM588.8 153.6H281.6l-2.2528-0.064a38.4 38.4 0 0 1 0-76.672L281.6 76.8h307.2l2.2528 0.064a38.4 38.4 0 0 1 0 76.672L588.8 153.6z m0 384H281.6l-2.2528-0.064a38.4 38.4 0 0 1 0-76.672L281.6 460.8h307.2l2.2528 0.064a38.4 38.4 0 0 1 0 76.672L588.8 537.6zM460.8 345.6a38.4 38.4 0 0 0 2.2528-76.736L460.8 268.8H281.6a38.4 38.4 0 0 0-2.2528 76.736L281.6 345.6h179.2z"  horiz-adv-x="1024" />
      
      <glyph glyph-name="fenxikanban" unicode="&#59236;" d="M896 832a76.8 76.8 0 0 0 76.8-76.8v-588.8a76.8 76.8 0 0 0-76.8-76.8H128a76.8 76.8 0 0 0-76.8 76.8V755.2a76.8 76.8 0 0 0 76.8 76.8h768z m-89.2928-208.4608a38.4 38.4 0 0 1-52.5568-0.6912l-1.6896-1.7408L581.76 434.432 480.5632 596.352l-1.3568 2.0224a38.4 38.4 0 0 1-57.856 5.2864l-1.6896-1.7536-204.8-224-1.5872-1.8432a38.4 38.4 0 0 1 2.2016-50.6368l1.8176-1.7664 1.8432-1.5872a38.4 38.4 0 0 1 50.6368 2.2016l1.7664 1.8176L442.24 512.7936l101.2096-161.9456 1.3568-2.0224a38.4 38.4 0 0 1 57.856-5.2864l1.6896 1.7536 204.8 224 1.5872 1.8432a38.4 38.4 0 0 1-4.0192 52.4032zM819.2 12.8a38.4 38.4 0 0 0 2.2528-76.736L819.2-64H204.8a38.4 38.4 0 0 0-2.2528 76.736L204.8 12.8h614.4z"  horiz-adv-x="1024" />
      
      <glyph glyph-name="chenggong" unicode="&#59237;" d="M512 384m-512 0a512 512 0 1 1 1024 0 512 512 0 1 1-1024 0ZM411.0464 191.7824a38.4 38.4 0 0 1 54.0288-2.7904l1.7664 1.664 264.5248 268.8a38.4 38.4 0 0 1-52.9024 55.616l-1.8304-1.7408L440.576 273.472l-104.96 115.5456a38.4 38.4 0 0 1-52.3904 4.1856l-1.8432-1.5744a38.4 38.4 0 0 1-4.1856-52.4032l1.5744-1.8432 132.2752-145.6z"  horiz-adv-x="1024" />
      
      <glyph glyph-name="jiaoseguanli" unicode="&#59238;" d="M832 844.8a76.8 76.8 0 0 0 76.8-76.8v-288.9728A216.576 216.576 0 0 1 793.6 512c-120.1792 0-217.6-97.4208-217.6-217.6l0.064-5.1328c0.64-27.3536 6.3616-53.8368 16.5248-78.2976l1.3184-3.072-0.2944-0.256A307.008 307.008 0 0 1 486.4-25.6c0-13.4656 2.304-26.3936 6.5536-38.4H128a76.8 76.8 0 0 0-76.8 76.8V768a76.8 76.8 0 0 0 76.8 76.8h704zM460.8 300.8H243.2l-2.2528-0.064a38.4 38.4 0 0 1 0-76.672L243.2 224h217.6l2.2528 0.064a38.4 38.4 0 0 1 0 76.672L460.8 300.8zM588.8 588.8H243.2l-2.2528-0.064a38.4 38.4 0 0 1 0-76.672L243.2 512h345.6l2.2528 0.064a38.4 38.4 0 0 1 0 76.672L588.8 588.8zM793.6 435.2c77.76 0 140.8-63.04 140.8-140.8 0-43.3792-19.6224-82.176-50.4576-108.0064C966.272 151.296 1024 69.5808 1024-25.6a38.4 38.4 0 0 0-38.4-38.4H601.6a38.4 38.4 0 0 0-38.4 38.4c0 95.1808 57.7152 176.8832 140.0576 212.0192A140.4416 140.4416 0 0 0 652.8 294.4c0 77.76 63.04 140.8 140.8 140.8z"  horiz-adv-x="1024" />
      
      <glyph glyph-name="lishijilu" unicode="&#59239;" d="M883.2 870.4a51.2 51.2 0 0 0 51.2-51.2l0.0128-476.992A305.9072 305.9072 0 0 1 742.4 409.6c-169.664 0-307.2-137.536-307.2-307.2a306.048 306.048 0 0 1 78.2336-204.8128L140.8-102.4a51.2 51.2 0 0 0-51.2 51.2V819.2a51.2 51.2 0 0 0 51.2 51.2h742.4zM448 524.8H281.6a38.4 38.4 0 0 1-2.2528-76.736L281.6 448h166.4a38.4 38.4 0 0 1 2.2528 76.736L448 524.8z m230.4 179.2H281.6a38.4 38.4 0 0 1-2.2528-76.736L281.6 627.2h396.8a38.4 38.4 0 0 1 2.2528 76.736L678.4 704zM742.4 332.8c127.2448 0 230.4-103.1552 230.4-230.4s-103.1552-230.4-230.4-230.4-230.4 103.1552-230.4 230.4 103.1552 230.4 230.4 230.4z m0-96a32 32 0 0 1-31.936-29.9008L710.4 204.8v-102.4l0.064-2.0992a32 32 0 0 1 29.824-29.824L742.4 70.4h89.6l2.0992 0.064a32 32 0 0 1 29.824 29.824L864 102.4l-0.064 2.0992a32 32 0 0 1-29.824 29.824L832 134.4h-57.6V204.8l-0.064 2.0992A32 32 0 0 1 742.4 236.8z"  horiz-adv-x="1024" />
      
      <glyph glyph-name="mulu" unicode="&#59240;" d="M857.6 870.4a76.8 76.8 0 0 0 76.8-76.8v-819.2a76.8 76.8 0 0 0-76.8-76.8H166.4a76.8 76.8 0 0 0-76.8 76.8V793.6a76.8 76.8 0 0 0 76.8 76.8h691.2z m-102.4-678.4H473.6l-2.2528-0.064a38.4 38.4 0 0 1 0-76.672L473.6 115.2h281.6l2.2528 0.064a38.4 38.4 0 0 1 0 76.672L755.2 192z m0 230.4H473.6l-2.2528-0.064a38.4 38.4 0 0 1 0-76.672L473.6 345.6h281.6l2.2528 0.064a38.4 38.4 0 0 1 0 76.672L755.2 422.4z m0 230.4H473.6l-2.2528-0.064a38.4 38.4 0 0 1 0-76.672L473.6 576h281.6l2.2528 0.064a38.4 38.4 0 0 1 0 76.672L755.2 652.8zM281.6 204.8a51.2 51.2 0 1 0 0-102.4 51.2 51.2 0 0 0 0 102.4z m0 230.4a51.2 51.2 0 1 0 0-102.4 51.2 51.2 0 0 0 0 102.4z m0 230.4a51.2 51.2 0 1 0 0-102.4 51.2 51.2 0 0 0 0 102.4z"  horiz-adv-x="1024" />
      
      <glyph glyph-name="shenpiguanli" unicode="&#59241;" d="M828.9152 870.4l-113.4336-116.672-35.8528 42.1888-2.3296 2.6496A102.4 102.4 0 0 1 521.344 665.984l2.2272-2.7136 108.8-128 2.304-2.6112c38.72-42.6112 105.1392-44.8512 146.6368-4.9536l2.5088 2.496L934.4 685.12V-25.6a76.8 76.8 0 0 0-76.8-76.8H166.4a76.8 76.8 0 0 0-76.8 76.8V793.6a76.8 76.8 0 0 0 76.8 76.8h662.5152zM665.6 422.4H294.4l-2.2528-0.064A38.4 38.4 0 0 1 294.4 345.6h371.2l2.2528 0.064A38.4 38.4 0 0 1 665.6 422.4zM422.4 652.8H294.4l-2.2528-0.064A38.4 38.4 0 0 1 294.4 576h128l2.2528 0.064A38.4 38.4 0 0 1 422.4 652.8zM665.6 192a38.4 38.4 0 0 0 2.2528-76.736L665.6 115.2H294.4a38.4 38.4 0 0 0-2.2528 76.736L294.4 192h371.2zM906.8672 858.7648a38.4 38.4 0 0 0 56.768-51.6608l-1.7024-1.8688-224-230.4a38.4 38.4 0 0 0-55.168 0.1152l-1.6256 1.792-108.8 128a38.4 38.4 0 0 0 56.8832 51.5328l1.6384-1.8048 81.4336-95.8208L906.8672 858.7648z"  horiz-adv-x="1024" />
      
      <glyph glyph-name="shezhi" unicode="&#59242;" d="M512.025599 896c35.723907 0 66.737532-2.598335 93.053674-7.807805a25.59936 25.59936 0 0 0 18.559536-15.026824l0.755181-1.971151 22.82183-68.363091a439.438614 439.438614 0 0 0 55.806604-22.361041l8.985376-4.479888 64.062398 32.075998a25.59936 25.59936 0 0 0 26.264944-2.009549 559.422814 559.422814 0 0 0 71.819004-60.542487 540.40249 540.40249 0 0 0 59.646509-70.705432 25.59936 25.59936 0 0 0 2.867128-24.255394l-0.895977-1.971151-32.088798-64.087997c9.343766-18.175546 17.381965-37.119072 24.063398-56.446589l2.777531-8.319792 68.606285-22.924227a25.59936 25.59936 0 0 0 16.997975-19.327517c5.222269-26.495338 7.833404-57.572961 7.820604-93.232869-0.025599-35.685508-2.662333-66.775931-7.935801-93.271268a25.59936 25.59936 0 0 0-15.014025-18.546737l-1.971151-0.742381-68.619084-22.937027a430.094848 430.094848 0 0 0-22.911427-56.932976l-3.929502-7.833404 32.152796-64.190396a25.59936 25.59936 0 0 0-1.868753-26.072948 526.988425 526.988425 0 0 0-59.812905-71.716607 525.772456 525.772456 0 0 0-71.511812-59.876903 25.59936 25.59936 0 0 0-24.140197-2.777531l-1.958351 0.883178-64.190395 32.127197a470.362641 470.362641 0 0 0-55.269018-23.525812l-9.407765-3.18712-22.629834-68.055899a25.59936 25.59936 0 0 0-19.929102-17.151571c-32.447189-5.60626-63.435214-8.40939-92.976876-8.40939-29.528862 0-60.478488 2.81593-92.861678 8.40939a25.59936 25.59936 0 0 0-19.21232 15.270018l-0.716782 1.881553-22.629834 68.055899a423.298218 423.298218 0 0 0-56.920177 22.911427l-7.859004 3.916702-64.075198-32.114397a25.59936 25.59936 0 0 0-26.124147 1.894353 529.753156 529.753156 0 0 0-71.499012 59.851303 528.78038 528.78038 0 0 0-59.787306 71.499013 25.59936 25.59936 0 0 0-2.79033 24.127397l0.883178 1.958351 31.935202 63.960001c-9.330967 18.175546-17.369166 37.119072-24.063399 56.446589l-2.764731 8.319792-68.644683 22.937026a25.59936 25.59936 0 0 0-16.985176 19.276318C2.636734 317.070473 0 348.224894 0 384.0128c0 35.787905 2.636734 66.942326 7.897403 93.450463a25.59936 25.59936 0 0 0 15.078023 18.559536l1.98395 0.755182 68.580685 22.719432a444.174496 444.174496 0 0 0 22.297043 55.704207l4.41589 8.959776-32.088798 64.062398a25.59936 25.59936 0 0 0 1.98395 26.239344 548.184695 548.184695 0 0 0 60.184096 71.499013 541.682458 541.682458 0 0 0 71.140621 59.812905 25.59936 25.59936 0 0 0 24.268193 2.841529l1.971151-0.895978 63.9984-32.165596a451.956701 451.956701 0 0 0 56.318592 23.858604l8.473388 2.854328 22.847429 68.734282A25.59936 25.59936 0 0 0 418.600735 888.0002C445.096073 893.337667 476.237694 896 512.038399 896z m4.761481-323.793505c-105.853354 0-191.9952-86.141846-191.9952-191.9952s86.141846-191.9952 191.9952-191.9952 191.9952 86.141846 191.9952 191.9952-86.141846 191.9952-191.9952 191.9952zM516.78708 495.408415c-63.448014 0-115.19712-51.749106-115.19712-115.19712 0-63.435214 51.749106-115.19712 115.19712-115.19712s115.19712 51.761906 115.19712 115.19712c0 63.448014-51.749106 115.19712-115.19712 115.19712z"  horiz-adv-x="1024" />
      
      <glyph glyph-name="shouye1" unicode="&#59243;" d="M563.4432 853.7344l2.944-2.1632 429.7216-328.256a38.4 38.4 0 0 0-44.6464-62.4384l-1.9712 1.408-27.904 21.312L921.6-25.6a51.2 51.2 0 0 0-48.64-51.136L870.4-76.8H153.6a51.2 51.2 0 0 0-51.136 48.64L102.4-25.6l-0.0128 509.184-27.8784-21.2992a38.4 38.4 0 0 0-48.512 59.4944l1.8944 1.536L457.6128 851.5712a89.6 89.6 0 0 0 105.8304 2.176zM358.4-76.8V217.6a51.2 51.2 0 0 0 51.2 51.2h204.8a51.2 51.2 0 0 0 51.2-51.2v-294.4"  horiz-adv-x="1024" />
      
      <glyph glyph-name="xiaoxi" unicode="&#59244;" d="M166.4 76.8a64 64 0 0 0 0 128h25.6V499.2c0 154.816 109.9392 283.9552 256 313.6V832a64 64 0 0 0 128 0v-19.2C722.0864 783.1424 832 654.0032 832 499.2v-294.4h25.6a64 64 0 0 0 0-128H166.4zM512-128a102.4 102.4 0 0 1 102.4 102.4v25.6H409.6v-25.6a102.4 102.4 0 0 1 102.4-102.4z"  horiz-adv-x="1024" />
      
      <glyph glyph-name="yingyong" unicode="&#59245;" d="M102.144 541.7344l358.4-201.6A25.6 25.6 0 0 0 473.6 317.824v-372.1728a25.6 25.6 0 0 0-37.5808-22.6176l-358.4 189.9264A25.6 25.6 0 0 0 64 135.5776V519.424a25.6 25.6 0 0 0 38.144 22.3104zM921.856 541.7344l-358.4-201.6A25.6 25.6 0 0 1 550.4 317.824v-372.1728a25.6 25.6 0 0 1 37.5808-22.6176l358.4 189.9264A25.6 25.6 0 0 1 960 135.5776V519.424a25.6 25.6 0 0 1-38.144 22.3104zM524.288 850.88l356.2368-194.816a25.6 25.6 0 0 0 0-44.928L524.288 416.32a25.6 25.6 0 0 0-24.576 0L143.488 611.136a25.6 25.6 0 0 0 0 44.928L499.712 850.88a25.6 25.6 0 0 0 24.576 0z"  horiz-adv-x="1024" />
      
      <glyph glyph-name="yingyongguanli" unicode="&#59246;" d="M396.8 345.6a76.8 76.8 0 0 0 76.8-76.8v-243.2a76.8 76.8 0 0 0-76.8-76.8H153.6a76.8 76.8 0 0 0-76.8 76.8V268.8a76.8 76.8 0 0 0 76.8 76.8h243.2z m473.6 0a76.8 76.8 0 0 0 76.8-76.8v-243.2a76.8 76.8 0 0 0-76.8-76.8H627.2a76.8 76.8 0 0 0-76.8 76.8V268.8a76.8 76.8 0 0 0 76.8 76.8h243.2zM396.8 819.2a76.8 76.8 0 0 0 76.8-76.8v-243.2a76.8 76.8 0 0 0-76.8-76.8H153.6a76.8 76.8 0 0 0-76.8 76.8V742.4a76.8 76.8 0 0 0 76.8 76.8h243.2zM809.5104 836.48l171.968-171.9808a76.8 76.8 0 0 0 0-108.608L809.5104 383.9232a76.8 76.8 0 0 0-108.6208 0L528.9216 555.8912a76.8 76.8 0 0 0 0 108.608L700.8896 836.48a76.8 76.8 0 0 0 108.6208 0z"  horiz-adv-x="1024" />
      
      <glyph glyph-name="youjian" unicode="&#59247;" d="M28.992 713.856l426.368-347.84 2.8672-2.24a89.6 89.6 0 0 1 107.5456 0l2.8672 2.24 426.368 347.8272c2.2016-7.168 3.392-14.7584 3.392-22.6432v-614.4a76.8 76.8 0 0 0-76.8-76.8H102.4a76.8 76.8 0 0 0-76.8 76.8V691.2c0 7.8848 1.1904 15.488 3.392 22.656zM921.6 768c5.568 0 10.9824-0.5888 16.2176-1.7152L520.0896 425.5232l-1.3312-0.9472a12.8 12.8 0 0 0-13.5168 0l-1.3312 0.9472L86.1952 766.2848A77.1072 77.1072 0 0 0 102.4 768h819.2z"  horiz-adv-x="1024" />
      
      <glyph glyph-name="zhuanfa" unicode="&#59248;" d="M396.8 61.7984a25.6 25.6 0 0 0-43.6992-18.0992L36.1984 360.6016a51.2 51.2 0 0 0 0 72.3968l316.9024 316.9024A25.6 25.6 0 0 0 396.8 731.8016V576c399.168-56.9984 570.24-341.3632 627.2-625.8432C882.9184 147.328 685.8496 238.4896 405.3248 240.2944L396.8 240.32v-178.5216z"  horiz-adv-x="1024" />
      
      <glyph glyph-name="zhankai" unicode="&#59249;" d="M140.8 832a76.8 76.8 0 0 1-76.8-76.8v-742.4a76.8 76.8 0 0 1 76.8-76.8h742.4a76.8 76.8 0 0 1 76.8 76.8V755.2a76.8 76.8 0 0 1-76.8 76.8H140.8z m167.6672-599.232h404.544l2.2528-0.064a38.4 38.4 0 0 0 0-76.672l-2.2528-0.064H308.4672l-2.2656 0.064a38.4 38.4 0 0 0 0 76.672l2.2656 0.064z m0 379.264h404.544l2.2528-0.064a38.4 38.4 0 0 0 0-76.672l-2.2528-0.064H308.4672l-2.2656 0.064a38.4 38.4 0 0 0 0 76.672l2.2656 0.064zM649.6768 472.5248a6.3232 6.3232 0 0 1-1.4592-4.0448v-162.6368a6.3232 6.3232 0 0 1 10.368-4.864l91.7504 76.4672a12.6464 12.6464 0 0 1 0 19.4304l-91.7504 76.4544a6.3232 6.3232 0 0 1-8.9088-0.8064zM308.48 422.4a38.4 38.4 0 0 1-2.2656-76.736L308.48 345.6H512a38.4 38.4 0 0 1 2.2528 76.736L512 422.4H308.4672z"  horiz-adv-x="1024" />
      
      <glyph glyph-name="zhuye" unicode="&#59250;" d="M64 563.2h256v-627.2H140.8a76.8 76.8 0 0 0-76.8 76.8V563.2z m896 0v-550.4a76.8 76.8 0 0 0-76.8-76.8H396.8V563.2h563.2zM883.2 832a76.8 76.8 0 0 0 76.8-76.8v-115.2H396.8V832h486.4zM320 640H64v115.2a76.8 76.8 0 0 0 76.8 76.8h179.2v-192zM140.8 832h179.2v-192H64v115.2a76.8 76.8 0 0 0 76.8 76.8z"  horiz-adv-x="1024" />
      
      <glyph glyph-name="zhiding" unicode="&#59251;" d="M652.8-128a38.4 38.4 0 0 1 38.4 38.4V281.5872L829.5424 281.6a25.6 25.6 0 0 1 16.4352 5.9776l1.664 1.5232a25.6 25.6 0 0 1 1.4976 34.5728l-1.4976 1.6256-304.0896 304.1024a51.2 51.2 0 0 1-70.3744 1.92l-2.048-1.92-304.0768-304.1024a25.6 25.6 0 0 1 16.192-43.6352l1.9072-0.064L332.8 281.5872V-89.6a38.4 38.4 0 0 1 38.4-38.4h281.6zM148.9408 896h716.8a25.6 25.6 0 0 0 25.6-25.6v-102.4a25.6 25.6 0 0 0-25.6-25.6h-716.8a25.6 25.6 0 0 0-25.6 25.6V870.4a25.6 25.6 0 0 0 25.6 25.6z"  horiz-adv-x="1024" />
      
      <glyph glyph-name="yonghuguanli" unicode="&#59252;" d="M384 793.6c134.3104 0 243.2-108.8896 243.2-243.2 0-89.1776-48-167.1552-119.5776-209.4848C651.3152 294.272 755.2 159.2576 755.2 0a38.4 38.4 0 0 0-36.1472-38.336L716.8-38.4H76.8a38.4 38.4 0 0 0-38.4 38.4c0 153.3824 96.3584 284.2624 231.8336 335.4112C193.2416 376.2176 140.8 457.1776 140.8 550.4c0 134.3104 108.8896 243.2 243.2 243.2zM697.6 793.6C821.312 793.6 921.6 693.312 921.6 569.6c0-85.3504-47.744-159.552-117.9648-197.3632C925.3632 322.4064 1011.2 202.0608 1011.2 61.5168a35.8144 35.8144 0 0 0-33.4848-35.84l-2.176-0.0768H831.2576c-7.936 136-78.784 257.536-186.752 332.3264l-3.2 2.1888 1.2672 1.7024A319.3728 319.3728 0 0 1 704 550.4a318.9888 318.9888 0 0 1-93.2096 225.7536A223.1552 223.1552 0 0 0 697.6 793.6z"  horiz-adv-x="1024" />
      
      <glyph glyph-name="baogao" unicode="&#59594;" d="M773.3 6.5H250.7c-32 0-58.1 26-58.1 58.1V645.3c0 32 26 58.1 58.1 58.1h101.6c16 0 29-13 29-29s-13-29-29-29H250.7v-580.7h522.7V645.3H679c-16 0-29 13-29 29s13 29 29 29h94.4c32 0 58.1-26.1 58.1-58.1v-580.7c-0.1-31.9-26.1-58-58.2-58z m0 0M613.6 587.3H410.4c-48 0-87.1 39.1-87.1 87.1 0 48 39.1 87.1 87.1 87.1h203.3c48 0 87.1-39.1 87.1-87.1-0.1-48.1-39.1-87.1-87.2-87.1zM410.4 703.4c-16 0-29-13-29-29s13-29 29-29h203.3c16 0 29 13 29 29s-13 29-29 29H410.4z m0 0M458.8 220.5L338.4 355.1l54.1 48.4 89.3-99.9L650.4 476l51.9-50.7-201.1-205.7c-11.8-12-31.2-11.6-42.4 0.9z m0 0"  horiz-adv-x="1024" />
      
      <glyph glyph-name="dianpu" unicode="&#59595;" d="M780 0.4H243.5c-32.6 0-59.1 26.5-59.1 59.1V428.8c0 16.3 13.2 29.5 29.5 29.5s29.5-13.2 29.5-29.5v-369.3H780V428.8c0 16.3 13.2 29.5 29.5 29.5s29.5-13.2 29.5-29.5v-369.3c0.1-32.6-26.4-59.1-59-59.1z m0 0M298.1 372.1c-30 0-56.9 6.3-80.1 18.7-0.4 0.2-0.8 0.5-1.3 0.7-54.8 29.8-88.9 86.9-88.9 149.4 0 11.8 4.8 25.1 52 128.2 11.2 24.6 21.9 47.8 28.7 63.7 9.3 21.6 30.6 35.6 54.2 35.6h499.8c23.8 0 45.1-14.1 54.4-36 6.7-15.9 17.1-39 28.1-63.5 46.2-102.7 50.8-115.9 50.8-127.7 0-62.2-33.9-119.5-88.6-149.3-23.4-12.8-50.8-19.4-81.2-19.6-39.8 0-77.6 13.6-107.7 38.1-29.7-24.2-66.9-37.9-106-38.2-39.6 0.2-77.1 13.9-107 38.1-30-24.4-67.7-38.1-107.2-38.2z m-51.6 70.4c14.4-7.5 31.7-11.3 51.5-11.3 32.7 0.1 63.6 14.5 84.7 39.6 5.6 6.7 13.9 10.5 22.6 10.5 8.7 0 17-3.8 22.6-10.5 20.9-24.8 51.6-39.1 84.4-39.3 32 0.3 62.6 14.6 83.4 39.4 11.2 13.4 34 13.4 45.3 0 21-25 51.9-39.4 84.9-39.4 20.4 0.1 38.3 4.2 53 12.3 34.9 19 56.9 55.2 57.8 94.9-4.4 14.3-29 69.2-45.6 106-11.2 24.9-21.8 48.4-28.6 64.6H262.7c-6.9-16.1-17.8-39.8-29.2-64.8-16.9-36.9-42.1-91.9-46.6-106.4 1-40 23.4-76.3 58.8-95.2 0.3-0.1 0.5-0.2 0.8-0.4z m516 266.8h0.1-0.1z m0 0M548.7 103.8h-73.9V251.5c0 16.3 13.2 29.5 29.5 29.5h14.8c16.3 0 29.5-13.2 29.5-29.5v-147.7z m0 0"  horiz-adv-x="1024" />
      
      <glyph glyph-name="huiyuan" unicode="&#59596;" d="M512.5 29.6c-17.5 0-34.1 7.5-45.6 20.7l-318 363.2c-16.5 18.8-19.3 46.1-7 67.9l128.2 227.1c10.4 18.5 30.2 30 51.4 30h380.1c21.3 0 41-11.5 51.5-30.1l128.6-228.2c12.3-21.8 9.5-49-7-67.9l-316.6-362c-11.5-13.1-28.1-20.7-45.6-20.7z m-1.1 59.6h2.2l316.6 362.1-128.6 228.2h-380L193.4 452.4l318-363.2z m-318 363.2z m0 0M689 480.1H334.6v44.3c0 16.3 13.2 29.5 29.5 29.5h295.4c16.3 0 29.5-13.2 29.5-29.5v-44.3z m0 0"  horiz-adv-x="1024" />
      
      <glyph glyph-name="fenlei" unicode="&#59597;" d="M512 339.7c-9 0-17.9 1.9-26.2 5.5L170.6 484.1c-22.1 9.7-36 30.2-36.3 53.5-0.3 23.2 13 44 34.7 54.3l315.2 149.4c17.4 8.2 38.2 8.2 55.6 0L854.6 592c21.7-10.3 35-31.1 34.7-54.3-0.3-23.2-14.2-43.7-36.3-53.4L538.2 345.2c-8.3-3.6-17.2-5.5-26.2-5.5zM197.3 538.5l312.8-137.9c1.1-0.5 2.6-0.5 3.7 0l312.5 137.8-312.4 148.2c-1.1 0.5-2.7 0.5-3.8 0L197.3 538.5z m632.1-1.6h0.1-0.1zM512.1 21.2c-8.7 0-17.6 2-25.8 5.9L181.4 159c-15.3 6.6-22.4 24.4-15.7 39.7 6.6 15.3 24.4 22.4 39.7 15.7l306-132.4 291.8 132.1c15.2 6.9 33.1 0.2 40-15 6.9-15.2 0.2-33.1-15-40L537 26.9c-7.7-3.8-16.3-5.7-24.9-5.7z m0 0M815.6 381.4l-304-132.1-303.7 131.8v-62.2c0-11.6 6.9-22 17.5-26.6l254.8-109.2c10-4.8 20.7-7.2 31.4-7.2s21.4 2.4 31.4 7.2l255.1 109.4c10.6 4.6 17.5 15 17.5 26.6v62.3z m0 0"  horiz-adv-x="1024" />
      
      <glyph glyph-name="linggan" unicode="&#59598;" d="M599 101.1H425c-32 0-58 26-58 58v43.5c0 16 13 29 29 29s29-13 29-29v-43.5h174v43.5c0 16 13 29 29 29s29-13 29-29v-43.5c0.1-31.9-26-58-58-58z m-14.5-94.6h-145c-16 0-29 13-29 29s13 29 29 29h145.1c16 0 29-13 29-29-0.1-16-13-29-29.1-29z m0 0M628.1 175.1c-11.2 0-21.8 6.5-26.6 17.4-6.4 14.7 0.3 31.8 15 38.2 87.7 38.3 142.2 125 142.2 226.1 0 136-110.6 246.6-246.6 246.6S265.4 592.8 265.4 456.8c0-101.1 54.5-187.8 142.2-226.1 14.7-6.4 21.4-23.5 15-38.2-6.4-14.7-23.5-21.4-38.2-15-109.2 47.7-177 154.7-177 279.3 0 168 136.7 304.6 304.6 304.6 168 0 304.6-136.7 304.6-304.6 0-124.6-67.8-231.6-177-279.3-3.6-1.5-7.5-2.4-11.5-2.4z m0 0M403.2 478.3h-72.5c0 92 74.8 166.8 166.8 166.8v-72.5c-52 0-94.3-42.3-94.3-94.3z m0 0"  horiz-adv-x="1024" />
      
      <glyph glyph-name="wode" unicode="&#59599;" d="M787.8 6.2H236.2c-32.2 0-58.4 26.1-58.4 58.1V183.5c0 16.7 7.2 32.5 19.6 43.6l161 142.2c-38.6 44.5-58.1 105.8-61.5 139.3-3.7 36.2-6 127.3 51.1 190.6 37.6 41.6 92.6 62.6 163.5 62.6 75 0 132.5-22.3 170.9-66.2 58.7-67.1 51.4-160.8 47.7-187.9-7.3-54.2-30.2-104.4-63-140.4l159.3-140.1c12.5-11 19.7-26.9 19.7-43.6v-119.1c0.1-32.2-26.1-58.3-58.3-58.3zM511.5 703.7c-53.8 0-94.3-14.6-120.3-43.5-41.5-46-39.3-117.2-36.4-145.7 3.2-31.9 25.9-93.1 64.4-123.2 6.8-5.3 10.9-13.4 11.1-22 0.3-8.6-3.3-16.9-9.8-22.6L236 183.7v-119.2h551.9l0.3 119.2-183.6 161.1c-6.5 5.8-10.2 14.1-9.9 22.9 0.3 8.7 4.5 16.8 11.5 22.1 40.6 30.9 60.9 85.2 66.4 125.6 2 14.9 9.8 91.9-33.9 141.9-26.9 30.8-69.7 46.4-127.2 46.4z m0 0M548.3 107.9h-72.7V253.2c0 16.1 13 29.1 29.1 29.1h14.5c16.1 0 29.1-13 29.1-29.1v-145.3z m0 0"  horiz-adv-x="1024" />
      
      <glyph glyph-name="shoucang" unicode="&#59600;" d="M291.8 15.1c-8.1 0-15.8 3.4-21.1 9.4-5.4 6-8 14-7.1 22l25.7 232.8-154 165.9c-6.9 7.4-9.3 17.8-6.4 27.5 2.9 9.7 10.7 17.1 20.5 19.4L360 543.2l127.6 196.9c5.2 8.1 14.2 13 23.8 13 9.6 0 18.6-4.9 23.8-13L662 543.8l211.4-51.6c9.6-2.3 17.3-9.4 20.3-18.8 3.1-9.4 1-19.6-5.4-27.2L748.1 280.7l-0.4-1.1L759.5 45c0.5-10.2-4.5-19.9-13.1-25.4s-19.5-5.9-28.5-1.2L512 127.4l-206.9-109c-4.1-2.2-8.7-3.3-13.3-3.3z m219.7 169.3c9.4 0 18.7-2.3 27-6.7L700.3 92 691 276.8c-0.8 14.9 4.1 29.3 13.8 40.7l110.6 130.4L649.5 488c-14.5 3.5-26.9 12.4-35.1 24.9l-103 159.4-103-159.4c-8.1-12.6-20.6-21.4-35.1-24.9l-163.4-39.6 120.4-129.1a58.15 58.15 0 0 0 15.3-46.2l-19.8-179.5 158.5 84c8.4 4.5 17.7 6.8 27.2 6.8z m0 0M389.3 444.3l-63.9-16c-10.4-2.5-14.4-15.2-7.2-23.2l99.5-111.7 81.4 30.5-109.8 120.4z m0 0"  horiz-adv-x="1024" />
      
      <glyph glyph-name="gouwuche" unicode="&#59601;" d="M738.9 152.6H277.3c-28.5 0-52.6 20.4-57.3 48.5l-85.3 511.5c-2.6 15.8 8 30.8 23.9 33.4 15.9 2.6 30.8-8.1 33.4-23.9l20.5-122.8h618.7c18.3 0 35.2-8.4 46.3-22.9 11.1-14.6 14.6-33.1 9.7-50.7L796 198.5c-5.9-26.7-29.7-45.9-57.1-45.9zM222.2 541.3l55.2-330.6H739c0.1 0.7 0.7 1.8 0.9 2.5l91.4 328.1H222.2z m0 0M637.6 65.8c0-15.6 8.3-29.9 21.8-37.7 13.5-7.8 30.1-7.8 43.5 0 13.5 7.8 21.8 22.2 21.8 37.7 0 15.6-8.3 29.9-21.8 37.7-13.5 7.8-30.1 7.8-43.5 0-13.5-7.8-21.8-22.2-21.8-37.7z m0 0M308.1 65.8c0-15.6 8.3-29.9 21.8-37.7 13.5-7.8 30.1-7.8 43.5 0 13.5 7.8 21.8 22.2 21.8 37.7 0 15.6-8.3 29.9-21.8 37.7-13.5 7.8-30.1 7.8-43.5 0-13.5-7.8-21.8-22.2-21.8-37.7z m0 0M661.5 273H371.2c-16 0-29 13-29 29v43.5h348.4V302c-0.1-16-13.1-29-29.1-29z m0 0"  horiz-adv-x="1024" />
      
      <glyph glyph-name="huangguan" unicode="&#59602;" d="M738.6 34.4H285c-27.4 0-51 18.6-57.4 45.2L136 459.5c-5.3 21.9 2.2 44.6 19.5 59.1s40.9 17.9 61.6 8.9l119.2-52 76.9 92.3c-7.2 13.1-11.8 27.5-13.4 42.6-3.4 32.9 7.6 65.3 30.3 88.9 21.3 22.3 50.2 34.5 81.2 34.6 31.1-0.1 59.9-12.7 81.3-35.4 22.4-23.8 33.1-56.2 29.5-89-1.6-14.8-6.2-29-13.3-41.8l76.9-92.3 121.2 52.4c20.7 9 44.2 5.5 61.5-9 17.2-14.5 24.7-37.1 19.4-59L796 79.6c-6.4-26.6-30-45.2-57.4-45.2zM193.8 474.2l-1.3-1.1L284 93.2l454.6-0.8 92.6 380.8-12.9 27.8 11.5-26.6-141.1-61.1c-11.8-5.1-25.6-1.8-33.8 8.1l-105 126.1c-9.3 11.1-8.9 27.4 0.8 38.1 7.7 8.5 12.4 18.9 13.7 30.2 1.8 15.8-3.4 31.4-14.1 42.8-10.3 11-24.2 17-39.1 17.1-15.1 0-28.8-5.8-39.2-16.7-10.8-11.3-16.1-26.9-14.5-42.7 1.2-11.6 5.8-22 13.7-30.7 9.7-10.7 10-26.9 0.8-38.1L367 421.4c-8.3-9.9-22.1-13.2-33.9-8l-139.3 60.8z m0 0M383.3 137.3H334l-50.9 203.3h49.4c12.8 0 26.5-13 30.5-29l36.4-145.2c3.9-16.1-3.2-29.1-16.1-29.1z m0 0"  horiz-adv-x="1024" />
      
      <glyph glyph-name="xihuan" unicode="&#59603;" d="M511.8 50c-15.7 0-30.4 6.1-41.4 17.3l-272.9 276C149.3 392 126.9 459.4 136 528.1c9 68.2 48.6 127.4 108.6 162.4 84.1 49 193.4 32.1 265.8-41.2l1.4-1.4 1.4 1.4c72.5 73.3 181.8 90.2 265.8 41.2 60-35 99.6-94.2 108.6-162.4 9.1-68.7-13.3-136.1-61.5-184.8l-272.9-276c-11-11.2-25.7-17.3-41.4-17.3zM348.7 660.3c-26 0-51.7-6.5-74.8-20-44.4-25.9-73.7-69.6-80.3-119.8-6.7-50.8 9.8-100.5 45.2-136.4l272.9-276 273 276c35.5 35.9 51.9 85.6 45.2 136.4-6.6 50.3-35.9 93.9-80.3 119.8-61.2 35.7-141.4 22.6-195.2-31.8l-22-22.3c-10.9-11-30.4-11-41.3 0l-22 22.3c-33.5 34-77.3 51.8-120.4 51.8z m456.7-296.6h0.1-0.1z m0 0M468.9 354.9l-51.4-51.4-143.8 143.9c-22.7 22.7-22.7 59.5 0 82.2l10.3 10.3 184.9-185z m0 0"  horiz-adv-x="1024" />
      
      <glyph glyph-name="shouye" unicode="&#59604;" d="M775.4 23.5H248c-30.6 0-55.5 24.9-55.5 55.5V453.3c0 15.8 6.7 30.8 18.5 41.4l264.2 236.4c21.1 18.9 53 18.9 74.1-0.1l263.3-236.3c11.7-10.5 18.4-25.6 18.4-41.3V79c-0.1-30.6-25-55.5-55.6-55.5zM512.1 689.7L248 453.3V79h527.4V453.4L512.1 689.7z m-18.5 20.7h0.1-0.1z m0 0M546.4 120.6H477V314.9c0 15.3 12.4 27.8 27.8 27.8h13.9c15.3 0 27.8-12.4 27.8-27.8v-194.3z m0 0"  horiz-adv-x="1024" />
      
      <glyph glyph-name="yisheng" unicode="&#59605;" d="M708.2 514.8H315.8c-16 0-29.1 13-29.1 29.1s13 29.1 29.1 29.1h392.3c16.1 0 29.1-13 29.1-29.1s-13-29.1-29-29.1z m0 0M548.3 107.9h-72.6V238.7c0 16 13 29.1 29.1 29.1h14.5c16 0 29.1-13 29.1-29.1v-130.8z m0 0M787.8 6.2H236.2c-32.2 0-58.4 26.1-58.4 58.1V183.5c0 16.7 7.2 32.5 19.6 43.6 0.5 0.4 1 0.9 1.5 1.3l131.4 100.9c-26.5 32.7-43.8 62.1-48 122-1.3 18-9.4 168-4.4 230.3 3.6 45 41.8 80.2 86.9 80.2h298.1c45.5 0 82.8-34.2 86.8-79.5 5.5-61.6-2.8-210.6-4.9-231.8-6.8-68.5-25-97.2-48.8-123.8l128.9-98.3c0.5-0.4 1.1-0.8 1.6-1.3 12.5-11 19.7-26.9 19.7-43.6v-119.1c0-32.1-26.2-58.2-58.4-58.2zM235.9 183.4v-119.1h551.9l0.3 119.1-152.8 116.5c-6.5 5-10.6 12.5-11.3 20.6-0.7 8.2 2.1 16.2 7.6 22.2l8.8 9.3c27 28.6 40.6 43 46.7 104.1 2.2 22.4 9.7 166.5 4.9 220.9-1.3 15.1-13.8 26.5-28.9 26.5H364.8c-15 0-27.8-11.7-29-26.7-4.7-58.3 3.4-206.5 4.5-221.5 3.7-52.9 17.7-69.3 51.4-108.8l2.6-3c5.2-6.1 7.6-14 6.8-21.9-0.8-7.9-4.9-15.1-11.2-20l-154-118.2z m0 0"  horiz-adv-x="1024" />
      
      <glyph glyph-name="accountingIcon" unicode="&#58972;" d="M51.2 896h716.8a256 256 0 0 0 256-256v-716.8a51.2 51.2 0 0 0-51.2-51.2H256A256 256 0 0 0 0 128V844.8a51.2 51.2 0 0 0 51.2 51.2zM207.0784 257.9968m38.4 0l0 0q38.4 0 38.4-38.4l0-140.8q0-38.4-38.4-38.4l0 0q-38.4 0-38.4 38.4l0 140.8q0 38.4 38.4 38.4ZM448.780202 635.535612m28.083982-26.188737l0 0q28.083982-26.188737 1.895245-54.272719l-189.31838-203.019107q-26.188737-28.083982-54.272719-1.895246l0 0q-28.083982 26.188737-1.895245 54.27272l189.31838 203.019107q26.188737 28.083982 54.272719 1.895245ZM404.098007 566.421161m22.025335 31.455439l0 0q22.025335 31.455439 53.480774 9.430103l129.302822-90.538811q31.455439-22.025335 9.430103-53.480774l0 0q-22.025335-31.455439-53.480773-9.430103l-129.302823 90.538811q-31.455439 22.025335-9.430103 53.480774ZM760.736908 727.605447m28.083982-26.188737l0 0q28.083982-26.188737 1.895245-54.272719l-174.59158-187.226548q-26.188737-28.083982-54.272719-1.895245l0 0q-28.083982 26.188737-1.895245 54.272719l174.59158 187.226548q26.188737 28.083982 54.272719 1.895245ZM471.0272 373.1968m38.4 0l0 0q38.4 0 38.4-38.4l0-256q0-38.4-38.4-38.4l0 0q-38.4 0-38.4 38.4l0 256q0 38.4 38.4 38.4ZM730.7392 513.9968m38.4 0l0 0q38.4 0 38.4-38.4l0-396.8q0-38.4-38.4-38.4l0 0q-38.4 0-38.4 38.4l0 396.8q0 38.4 38.4 38.4Z"  horiz-adv-x="1024" />
      
      <glyph glyph-name="invoiceIcon" unicode="&#58973;" d="M0 896m256 0l512 0q256 0 256-256l0-512q0-256-256-256l-512 0q-256 0-256 256l0 512q0 256 256 256ZM492.8 684.2112m0-38.4l0 0q0-38.4-38.4-38.4l-140.8 0q-38.4 0-38.4 38.4l0 0q0 38.4 38.4 38.4l140.8 0q38.4 0 38.4-38.4ZM608 420.2752m0-38.4l0 0q0-38.4-38.4-38.4l-256 0q-38.4 0-38.4 38.4l0 0q0 38.4 38.4 38.4l256 0q38.4 0 38.4-38.4ZM748.8 160.5632m0-38.4l0 0q0-38.4-38.4-38.4l-396.8 0q-38.4 0-38.4 38.4l0 0q0 38.4 38.4 38.4l396.8 0q38.4 0 38.4-38.4ZM0 559.0016c58.3168-28.3904 102.4-99.328 102.4-181.4016 0-80.1024-39.4752-149.3248-102.4-182.4zM1024 559.0016c-58.3168-28.3904-102.4-99.328-102.4-181.4016 0-80.1024 39.4752-149.3248 102.4-182.4z"  horiz-adv-x="1024" />
      
      <glyph glyph-name="reimbursementIcon" unicode="&#58974;" d="M256 896h512a256 256 0 0 0 256-256v-512a256 256 0 0 0-256-256H51.2a51.2 51.2 0 0 0-51.2 51.2V640A256 256 0 0 0 256 896zM260.585166 678.963237m29.416107 24.683044l1.539443 1.291746q29.416107 24.683044 54.099151-4.733062l194.469477-231.759699q24.683044-29.416107-4.733062-54.099151l-1.539443-1.291746q-29.416107-24.683044-54.099151 4.733063l-194.469478 231.759698q-24.683044 29.416107 4.733063 54.099151ZM518.880128 387.431786m-29.416107 24.683044l-1.539443 1.291746q-29.416107 24.683044-4.733062 54.099151l194.469477 231.759699q24.683044 29.416107 54.099151 4.733062l1.539443-1.291746q29.416107-24.683044 4.733062-54.099151l-194.469477-231.759698q-24.683044-29.416107-54.099151-4.733063ZM465.2288 507.0464m38.4 0l2.0096 0q38.4 0 38.4-38.4l0-390.9248q0-38.4-38.4-38.4l-2.0096 0q-38.4 0-38.4 38.4l0 390.9248q0 38.4 38.4 38.4ZM261.312 211.2512m0 38.4l0 2.0096q0 38.4 38.4 38.4l424.6016 0q38.4 0 38.4-38.4l0-2.0096q0-38.4-38.4-38.4l-424.6016 0q-38.4 0-38.4 38.4ZM261.2992 367.168m0 38.4l0 2.0096q0 38.4 38.4 38.4l424.6016 0q38.4 0 38.4-38.4l0-2.0096q0-38.4-38.4-38.4l-424.6016 0q-38.4 0-38.4 38.4Z"  horiz-adv-x="1024" />
      
      <glyph glyph-name="customerIcon" unicode="&#58979;" d="M0 896m256 0l512 0q256 0 256-256l0-512q0-256-256-256l-512 0q-256 0-256 256l0 512q0 256 256 256ZM512 576m-140.8 0a140.8 140.8 0 1 1 281.6 0 140.8 140.8 0 1 1-281.6 0ZM204.8 320m134.4 0l358.4 0q134.4 0 134.4-134.4l0 0q0-134.4-134.4-134.4l-358.4 0q-134.4 0-134.4 134.4l0 0q0 134.4 134.4 134.4Z"  horiz-adv-x="1024" />
      
      <glyph glyph-name="saleIcon" unicode="&#58980;" d="M696.626917 888.747486a50.929684 50.929684 0 0 0 42.195244-17.481615l119.239123-137.853923a50.929684 50.929684 0 0 1 5.20756-5.20756l137.853923-119.239123a50.929684 50.929684 0 0 0 17.481615-42.195244l-13.165324-181.793508a50.929684 50.929684 0 0 1 0-7.359339l13.165324-181.793509a50.929684 50.929684 0 0 0-17.481615-42.195243l-137.853923-119.239124a50.929684 50.929684 0 0 1-5.20756-5.20756l-119.239123-137.853923a50.929684 50.929684 0 0 0-42.195244-17.481614l-181.793508 13.165323a50.929684 50.929684 0 0 1-7.359339 0l-181.793509-13.165323a50.929684 50.929684 0 0 0-42.195243 17.481614l-119.239124 137.853923a50.929684 50.929684 0 0 1-5.20756 5.20756L21.184711 153.628422a50.929684 50.929684 0 0 0-17.481614 42.195243l13.165323 181.793509a50.929684 50.929684 0 0 1 0 7.359339L3.703097 566.770021a50.929684 50.929684 0 0 0 17.481614 42.195244l137.853923 119.239123a50.929684 50.929684 0 0 1 5.20756 5.20756l119.239124 137.853923A50.929684 50.929684 0 0 0 325.680561 888.747486l181.793509-13.165324a50.929684 50.929684 0 0 1 7.359339 0zM496.078553 56.314528L281.779174 427.477335a50.776895 50.776895 0 0 0-4.851053 39.470505L304.009981 662.237715A50.929684 50.929684 0 0 0 373.567197 702.421235l182.621116-74.15362a50.764163 50.764163 0 0 0 31.831052-23.962416l214.312112-371.17554a50.929684 50.929684 0 0 0-18.640264-69.569949l-218.055444-125.898179a50.929684 50.929684 0 0 0-69.569949 18.640264zM400.076098 572.143103m-50.929685 0a50.929684 50.929684 0 1 1 101.859369 0 50.929684 50.929684 0 1 1-101.859369 0Z"  horiz-adv-x="1024" />
      
      <glyph glyph-name="subscriptionIcon" unicode="&#58982;" d="M51.2 896h716.8a256 256 0 0 0 256-256v-716.8a51.2 51.2 0 0 0-51.2-51.2H256A256 256 0 0 0 0 128V844.8a51.2 51.2 0 0 0 51.2 51.2zM500.3008 722.5344a12.8 12.8 0 0 0 23.3856 0l96.7168-217.1904a12.8 12.8 0 0 1 10.368-7.5264l236.8-24.7168a12.8 12.8 0 0 0 7.2192-22.2592L697.792 291.9552a12.8 12.8 0 0 1-3.968-12.1984L743.4368 47.36a12.8 12.8 0 0 0-18.9184-13.76l-206.08 118.9632a12.8 12.8 0 0 1-12.8 0l-206.08-118.9632A12.8 12.8 0 0 0 280.576 47.36l49.6128 232.3968a12.8 12.8 0 0 1-3.968 12.1984L149.2736 450.8544a12.8 12.8 0 0 0 7.2192 22.2592l236.8 24.7168a12.8 12.8 0 0 1 10.368 7.5264z"  horiz-adv-x="1024" />
      
      <glyph glyph-name="businessIcon" unicode="&#58986;" d="M0 896m256 0l512 0q256 0 256-256l0-512q0-256-256-256l-512 0q-256 0-256 256l0 512q0 256 256 256ZM179.1872 645.2992m0 35.3408l0 0.0128q0 35.3408 35.3408 35.3408l82.4832 0q35.3408 0 35.3408-35.3408l0-0.0128q0-35.3408-35.3408-35.3408l-82.4832 0q-35.3408 0-35.3408 35.3408ZM333.056 181.44m0 35.3408l0 0.0128q0 35.3408 35.3408 35.3408l412.3648 0q35.3408 0 35.3408-35.3408l0-0.0128q0-35.3408-35.3408-35.3408l-412.3648 0q-35.3408 0-35.3408 35.3408ZM260.340514 707.841138m34.996866 4.918488l0.012675 0.001782q34.996866 4.918489 39.915355-30.078377l64.143435-456.404254q4.918489-34.996866-30.078377-39.915355l-0.012676-0.001781q-34.996866-4.918489-39.915354 30.078377l-64.143435 456.404254q-4.918489 34.996866 30.078377 39.915354ZM434.3808 97.4464m-47.1296 0a47.1296 47.1296 0 1 1 94.2592 0 47.1296 47.1296 0 1 1-94.2592 0ZM714.7776 97.4464m-47.1296 0a47.1296 47.1296 0 1 1 94.2592 0 47.1296 47.1296 0 1 1-94.2592 0ZM334.4768 601.4976l465.9712 2.56a45.8112 45.8112 0 0 0 44.416-47.1296l-51.1232-175.8592c-8.3072-27.1872-19.8656-47.1296-44.3776-47.1296l-370.5088-0.8576a45.8112 45.8112 0 0 0-44.3776 47.1296v176.7168c0 26.0352-24.4992 44.5696 0 44.5696z"  horiz-adv-x="1024" />
      
      <glyph glyph-name="inventoryIcon" unicode="&#58991;" d="M51.2 896h716.8a256 256 0 0 0 256-256v-716.8a51.2 51.2 0 0 0-51.2-51.2H256A256 256 0 0 0 0 128V844.8a51.2 51.2 0 0 0 51.2 51.2zM166.4128 742.4m51.2 0l204.8 0q51.2 0 51.2-51.2l0-204.8q0-51.2-51.2-51.2l-204.8 0q-51.2 0-51.2 51.2l0 204.8q0 51.2 51.2 51.2ZM166.4128 332.8m51.2 0l204.8 0q51.2 0 51.2-51.2l0-204.8q0-51.2-51.2-51.2l-204.8 0q-51.2 0-51.2 51.2l0 204.8q0 51.2 51.2 51.2ZM550.4128 332.8m51.2 0l204.8 0q51.2 0 51.2-51.2l0-204.8q0-51.2-51.2-51.2l-204.8 0q-51.2 0-51.2 51.2l0 204.8q0 51.2 51.2 51.2Z"  horiz-adv-x="1024" />
      
      <glyph glyph-name="procurementIcon" unicode="&#58994;" d="M0 896m256 0l512 0q256 0 256-256l0-512q0-256-256-256l-512 0q-256 0-256 256l0 512q0 256 256 256ZM219.2896 28.3392m0 51.2l0 537.6q0 51.2 51.2 51.2l483.0464 0q51.2 0 51.2-51.2l0-537.6q0-51.2-51.2-51.2l-483.0464 0q-51.2 0-51.2 51.2ZM390.4 739.6608m64 0l115.2 0q64 0 64-64l0 0q0-64-64-64l-115.2 0q-64 0-64 64l0 0q0 64 64 64ZM454.4 739.6608a64 64 0 0 1 0-128h115.2a64 64 0 0 1 0 128h-115.2m0 102.4h115.2a166.4 166.4 0 0 0 0-332.8h-115.2a166.4 166.4 0 0 0 0 332.8zM356.59425 354.230212m22.627417-22.627417l125.473553-125.473553q22.627417-22.627417 0-45.254834l0 0q-22.627417-22.627417-45.254834 0l-125.473553 125.473553q-22.627417 22.627417 0 45.254834l0 0q22.627417 22.627417 45.254834 0ZM738.264515 389.905911m-22.627417-22.627417l-206.416349-206.416349q-22.627417-22.627417-45.254834 0l0 0q-22.627417 22.627417 0 45.254834l206.416349 206.416349q22.627417 22.627417 45.254834 0l0 0q22.627417-22.627417 0-45.254834Z"  horiz-adv-x="1024" />
      
      <glyph glyph-name="projectIcon" unicode="&#58997;" d="M51.2 896h716.8a256 256 0 0 0 256-256v-716.8a51.2 51.2 0 0 0-51.2-51.2H256A256 256 0 0 0 0 128V844.8a51.2 51.2 0 0 0 51.2 51.2zM499.136 729.728a25.6 25.6 0 0 0 25.7152 0l309.76-179.8784a25.6 25.6 0 0 0 0-44.2752l-309.76-179.8784a25.6 25.6 0 0 0-25.7152 0L189.3504 505.5104a25.6 25.6 0 0 0 0 44.2752zM160.907301 376.414996m19.2 33.255375l0 0q19.2 33.255376 52.455376 14.055376l286.240102-165.2608q33.255376-19.2 14.055376-52.455376l0 0q-19.2-33.255376-52.455376-14.055375l-286.240102 165.2608q-33.255376 19.2-14.055376 52.455375ZM160.911544 236.759648m19.2 33.255375l0 0q19.2 33.255376 52.455375 14.055376l286.240102-165.2608q33.255376-19.2 14.055376-52.455376l0 0q-19.2-33.255376-52.455376-14.055375l-286.240102 165.2608q-33.255376 19.2-14.055375 52.455375ZM491.944701 170.473m-19.2 33.255376l0 0q-19.2 33.255376 14.055375 52.455375l306.403945 176.9024q33.255376 19.2 52.455376-14.055375l0 0q19.2-33.255376-14.055376-52.455376l-306.403945-176.9024q-33.255376-19.2-52.455375 14.055376ZM491.944258 30.799656m-19.2 33.255376l0 0q-19.2 33.255376 14.055375 52.455375l306.403945 176.9024q33.255376 19.2 52.455376-14.055375l0 0q19.2-33.255376-14.055376-52.455376l-306.403945-176.9024q-33.255376-19.2-52.455375 14.055376Z"  horiz-adv-x="1024" />
      
      <glyph glyph-name="onSiteServiceIcon" unicode="&#58999;" d="M51.2 896h716.8a256 256 0 0 0 256-256v-716.8a51.2 51.2 0 0 0-51.2-51.2H256A256 256 0 0 0 0 128V844.8a51.2 51.2 0 0 0 51.2 51.2zM342.208 704a150.208 150.208 0 0 0 150.1952-150.208V418.56a15.0144 15.0144 0 0 0-14.9632-14.9632H342.208A150.208 150.208 0 0 0 192 553.792 150.208 150.208 0 0 0 342.208 704zM681.8048 704A150.208 150.208 0 0 0 832 553.792a150.208 150.208 0 0 0-150.1952-150.1952H546.6112a15.0144 15.0144 0 0 0-15.0144 14.9632V553.792A150.208 150.208 0 0 0 681.8048 704zM342.208 364.4032H477.44a15.0144 15.0144 0 0 0 15.0144-15.0144v-135.1936A150.208 150.208 0 0 0 342.208 64 150.208 150.208 0 0 0 192 214.1952a150.208 150.208 0 0 0 150.208 150.208zM546.6112 364.4032h135.1936A150.208 150.208 0 0 0 832 214.1952 150.208 150.208 0 0 0 681.8048 64a150.208 150.208 0 0 0-150.208 150.1952V349.3888a15.0144 15.0144 0 0 0 15.0144 15.0144z"  horiz-adv-x="1024" />
      
      <glyph glyph-name="schedulingIcon" unicode="&#59001;" d="M0 896m256 0l512 0q256 0 256-256l0-512q0-256-256-256l-512 0q-256 0-256 256l0 512q0 256 256 256ZM189.3504 37.7728m0 51.2l0 346.2272q0 51.2 51.2 51.2l542.8992 0q51.2 0 51.2-51.2l0-346.2272q0-51.2-51.2-51.2l-542.8992 0q-51.2 0-51.2 51.2ZM189.3504 567.8464m0 51.2l0 51.2512q0 51.2 51.2 51.2l542.8992 0q51.2 0 51.2-51.2l0-51.2512q0-51.2-51.2-51.2l-542.8992 0q-51.2 0-51.2 51.2ZM320.2432 781.4272m51.2 0l12.8 0q51.2 0 51.2-51.2l0-51.2q0-51.2-51.2-51.2l-12.8 0q-51.2 0-51.2 51.2l0 51.2q0 51.2 51.2 51.2ZM371.4432 807.0272h12.8a76.8896 76.8896 0 0 0 76.8-76.8v-51.2a76.8896 76.8896 0 0 0-76.8-76.8h-12.8a76.8896 76.8896 0 0 0-76.8 76.8v51.2a76.8896 76.8896 0 0 0 76.8 76.8z m12.8-153.6a25.6 25.6 0 0 1 25.6 25.6v51.2a25.6 25.6 0 0 1-25.6 25.6h-12.8a25.6 25.6 0 0 1-25.6-25.6v-51.2a25.6 25.6 0 0 1 25.6-25.6zM589.0432 781.4272m51.2 0l12.8 0q51.2 0 51.2-51.2l0-51.2q0-51.2-51.2-51.2l-12.8 0q-51.2 0-51.2 51.2l0 51.2q0 51.2 51.2 51.2ZM640.2432 807.0272h12.8a76.8896 76.8896 0 0 0 76.8-76.8v-51.2a76.8896 76.8896 0 0 0-76.8-76.8h-12.8a76.8896 76.8896 0 0 0-76.8 76.8v51.2a76.8896 76.8896 0 0 0 76.8 76.8z m12.8-153.6a25.6 25.6 0 0 1 25.6 25.6v51.2a25.6 25.6 0 0 1-25.6 25.6h-12.8a25.6 25.6 0 0 1-25.6-25.6v-51.2a25.6 25.6 0 0 1 25.6-25.6zM454.4 409.6m25.6 0l64 0q25.6 0 25.6-25.6l0-64q0-25.6-25.6-25.6l-64 0q-25.6 0-25.6 25.6l0 64q0 25.6 25.6 25.6ZM454.4 230.4m25.6 0l64 0q25.6 0 25.6-25.6l0-64q0-25.6-25.6-25.6l-64 0q-25.6 0-25.6 25.6l0 64q0 25.6 25.6 25.6ZM275.2 230.4m25.6 0l64 0q25.6 0 25.6-25.6l0-64q0-25.6-25.6-25.6l-64 0q-25.6 0-25.6 25.6l0 64q0 25.6 25.6 25.6ZM633.6 409.6m25.6 0l64 0q25.6 0 25.6-25.6l0-64q0-25.6-25.6-25.6l-64 0q-25.6 0-25.6 25.6l0 64q0 25.6 25.6 25.6ZM633.6 230.4m25.6 0l64 0q25.6 0 25.6-25.6l0-64q0-25.6-25.6-25.6l-64 0q-25.6 0-25.6 25.6l0 64q0 25.6 25.6 25.6Z"  horiz-adv-x="1024" />
      
    </font>
</defs>
</svg>
